<svg id="Layer_1" data-name="Layer 1" xmlns="http://www.w3.org/2000/svg" viewBox="0 0 30 24" class="icon" style="fill: #012B55; ">
    <path id="path-1" d="M18.83,14.38a2.78,2.78,0,0,0,.65,1.9,2.31,2.31,0,0,0,1.7.59,2.31,2.31,0,0,0,1.38-.41,1.79,1.79,0,0,0,.71-0.87h2.31a4.48,4.48,0,0,1-1.71,2.53,5,5,0,0,1-2.78.76,5.53,5.53,0,0,1-2-.37,4.34,4.34,0,0,1-1.55-1,4.77,4.77,0,0,1-1-1.63,6.29,6.29,0,0,1,0-4.13,4.83,4.83,0,0,1,1-1.64A4.64,4.64,0,0,1,19.09,9a4.86,4.86,0,0,1,2-.4A4.5,4.5,0,0,1,23.21,9a4.36,4.36,0,0,1,1.5,1.3,5.39,5.39,0,0,1,.84,1.86,7,7,0,0,1,.18,2.18h-6.9Zm3.67-3.24A1.94,1.94,0,0,0,21,10.6a2.26,2.26,0,0,0-1,.22,2,2,0,0,0-.66.54,1.94,1.94,0,0,0-.35.69,3.47,3.47,0,0,0-.12.65h4.29A2.75,2.75,0,0,0,22.5,11.14ZM18.29,6h5.36V7.35H18.29V6ZM13.89,17.7a4.4,4.4,0,0,1-1.51.7,6.44,6.44,0,0,1-1.73.22H4.24V5.12h6.24a7.7,7.7,0,0,1,1.73.17,3.67,3.67,0,0,1,1.33.56,2.6,2.6,0,0,1,.86,1,3.74,3.74,0,0,1,.3,1.58,3,3,0,0,1-.46,1.7,3.33,3.33,0,0,1-1.35,1.12,3.19,3.19,0,0,1,1.82,1.26,3.79,3.79,0,0,1,.59,2.17,3.79,3.79,0,0,1-.39,1.77A3.24,3.24,0,0,1,13.89,17.7ZM11.72,8.19a1.25,1.25,0,0,0-.45-0.47,1.88,1.88,0,0,0-.64-0.24,5.5,5.5,0,0,0-.76-0.05H7.16v3.16h3a2,2,0,0,0,1.28-.38A1.43,1.43,0,0,0,11.89,9,1.73,1.73,0,0,0,11.72,8.19ZM11.84,13a2.39,2.39,0,0,0-1.52-.45H7.16v3.73h3.11a3.61,3.61,0,0,0,.82-0.09A2,2,0,0,0,11.77,16a1.39,1.39,0,0,0,.47-0.54,1.85,1.85,0,0,0,.17-0.88A1.77,1.77,0,0,0,11.84,13Z">
    </path>
</svg>